{
	"patcher" : 	{
		"fileversion" : 1,
		"appversion" : 		{
			"major" : 8,
			"minor" : 6,
			"revision" : 2,
			"architecture" : "x64",
			"modernui" : 1
		}
,
		"classnamespace" : "box",
		"rect" : [ 136.0, 148.0, 965.0, 823.0 ],
		"bglocked" : 0,
		"openinpresentation" : 1,
		"default_fontsize" : 12.0,
		"default_fontface" : 0,
		"default_fontname" : "Arial",
		"gridonopen" : 1,
		"gridsize" : [ 15.0, 15.0 ],
		"gridsnaponopen" : 1,
		"objectsnaponopen" : 1,
		"statusbarvisible" : 2,
		"toolbarvisible" : 1,
		"lefttoolbarpinned" : 0,
		"toptoolbarpinned" : 0,
		"righttoolbarpinned" : 0,
		"bottomtoolbarpinned" : 0,
		"toolbars_unpinned_last_save" : 0,
		"tallnewobj" : 0,
		"boxanimatetime" : 200,
		"enablehscroll" : 1,
		"enablevscroll" : 1,
		"devicewidth" : 0.0,
		"description" : "",
		"digest" : "",
		"tags" : "",
		"style" : "",
		"subpatcher_template" : "",
		"assistshowspatchername" : 0,
		"title" : "Test odsłuchowy",
		"boxes" : [ 			{
				"box" : 				{
					"id" : "obj-53",
					"maxclass" : "message",
					"numinlets" : 2,
					"numoutlets" : 1,
					"outlettype" : [ "" ],
					"patching_rect" : [ 1417.045441031455994, 689.0, 53.0, 22.0 ],
					"text" : "list 0 6 1"
				}

			}
, 			{
				"box" : 				{
					"id" : "obj-52",
					"maxclass" : "message",
					"numinlets" : 2,
					"numoutlets" : 1,
					"outlettype" : [ "" ],
					"patching_rect" : [ 1417.045441031455994, 593.789468288421631, 53.0, 22.0 ],
					"text" : "list 0 5 1"
				}

			}
, 			{
				"box" : 				{
					"id" : "obj-51",
					"maxclass" : "message",
					"numinlets" : 2,
					"numoutlets" : 1,
					"outlettype" : [ "" ],
					"patching_rect" : [ 1417.045441031455994, 493.909086465835571, 53.0, 22.0 ],
					"text" : "list 0 4 1"
				}

			}
, 			{
				"box" : 				{
					"id" : "obj-50",
					"maxclass" : "message",
					"numinlets" : 2,
					"numoutlets" : 1,
					"outlettype" : [ "" ],
					"patching_rect" : [ 1417.045441031455994, 389.47368049621582, 53.0, 22.0 ],
					"text" : "list 0 3 1"
				}

			}
, 			{
				"box" : 				{
					"id" : "obj-49",
					"maxclass" : "message",
					"numinlets" : 2,
					"numoutlets" : 1,
					"outlettype" : [ "" ],
					"patching_rect" : [ 1417.045441031455994, 296.052628755569458, 53.0, 22.0 ],
					"text" : "list 0 2 1"
				}

			}
, 			{
				"box" : 				{
					"id" : "obj-46",
					"maxclass" : "message",
					"numinlets" : 2,
					"numoutlets" : 1,
					"outlettype" : [ "" ],
					"patching_rect" : [ 1417.045441031455994, 197.736840486526489, 53.0, 22.0 ],
					"text" : "list 0 1 1"
				}

			}
, 			{
				"box" : 				{
					"id" : "obj-45",
					"maxclass" : "message",
					"numinlets" : 2,
					"numoutlets" : 1,
					"outlettype" : [ "" ],
					"patching_rect" : [ 1417.045441031455994, 93.909090280532837, 53.0, 22.0 ],
					"text" : "list 0 0 1"
				}

			}
, 			{
				"box" : 				{
					"annotation" : "",
					"autoscroll" : 0,
					"bgcolor" : [ 1.0, 1.0, 1.0, 0.0 ],
					"bordercolor" : [ 0.349019607843137, 0.349019607843137, 0.349019607843137, 0.0 ],
					"fontname" : "Lato",
					"fontsize" : 30.0,
					"hidden" : 1,
					"id" : "obj-42",
					"lines" : 1,
					"maxclass" : "textedit",
					"numinlets" : 1,
					"numoutlets" : 4,
					"outlettype" : [ "", "int", "", "" ],
					"parameter_enable" : 0,
					"patching_rect" : [ 1078.409080624580383, 661.0, 316.0, 78.0 ],
					"presentation" : 1,
					"presentation_rect" : [ 1008.0, 910.0, 295.0, 52.0 ],
					"readonly" : 1,
					"text" : "Wcale nie straszny",
					"textcolor" : [ 0.337254901960784, 0.384313725490196, 0.462745098039216, 1.0 ],
					"varname" : "label_scale1"
				}

			}
, 			{
				"box" : 				{
					"annotation" : "",
					"autoscroll" : 0,
					"bgcolor" : [ 1.0, 1.0, 1.0, 0.0 ],
					"bordercolor" : [ 0.349019607843137, 0.349019607843137, 0.349019607843137, 0.0 ],
					"fontname" : "Lato",
					"fontsize" : 30.0,
					"hidden" : 1,
					"id" : "obj-39",
					"lines" : 1,
					"maxclass" : "textedit",
					"numinlets" : 1,
					"numoutlets" : 4,
					"outlettype" : [ "", "int", "", "" ],
					"parameter_enable" : 0,
					"patching_rect" : [ 1078.409080624580383, 565.789468288421631, 316.0, 78.0 ],
					"presentation" : 1,
					"presentation_rect" : [ 1008.0, 806.0, 295.0, 52.0 ],
					"readonly" : 1,
					"text" : "Niezbyt straszny",
					"textcolor" : [ 0.337254901960784, 0.384313725490196, 0.462745098039216, 1.0 ],
					"varname" : "label_scale2"
				}

			}
, 			{
				"box" : 				{
					"annotation" : "",
					"autoscroll" : 0,
					"bgcolor" : [ 1.0, 1.0, 1.0, 0.0 ],
					"bordercolor" : [ 0.349019607843137, 0.349019607843137, 0.349019607843137, 0.0 ],
					"fontname" : "Lato",
					"fontsize" : 30.0,
					"hidden" : 1,
					"id" : "obj-37",
					"lines" : 1,
					"maxclass" : "textedit",
					"numinlets" : 1,
					"numoutlets" : 4,
					"outlettype" : [ "", "int", "", "" ],
					"parameter_enable" : 0,
					"patching_rect" : [ 1078.409080624580383, 465.909086465835571, 316.0, 78.0 ],
					"presentation" : 1,
					"presentation_rect" : [ 1008.0, 707.0, 295.0, 52.0 ],
					"readonly" : 1,
					"text" : "Trochę straszny",
					"textcolor" : [ 0.337254901960784, 0.384313725490196, 0.462745098039216, 1.0 ],
					"varname" : "label_scale3"
				}

			}
, 			{
				"box" : 				{
					"annotation" : "",
					"autoscroll" : 0,
					"bgcolor" : [ 1.0, 1.0, 1.0, 0.0 ],
					"bordercolor" : [ 0.349019607843137, 0.349019607843137, 0.349019607843137, 0.0 ],
					"fontname" : "Lato",
					"fontsize" : 30.0,
					"hidden" : 1,
					"id" : "obj-36",
					"lines" : 1,
					"maxclass" : "textedit",
					"numinlets" : 1,
					"numoutlets" : 4,
					"outlettype" : [ "", "int", "", "" ],
					"parameter_enable" : 0,
					"patching_rect" : [ 1078.409080624580383, 368.181814670562744, 316.0, 78.0 ],
					"presentation" : 1,
					"presentation_rect" : [ 1008.0, 616.0, 295.0, 52.0 ],
					"readonly" : 1,
					"text" : "Straszny",
					"textcolor" : [ 0.337254901960784, 0.384313725490196, 0.462745098039216, 1.0 ],
					"varname" : "label_scale4"
				}

			}
, 			{
				"box" : 				{
					"annotation" : "",
					"autoscroll" : 0,
					"bgcolor" : [ 1.0, 1.0, 1.0, 0.0 ],
					"bordercolor" : [ 0.349019607843137, 0.349019607843137, 0.349019607843137, 0.0 ],
					"fontname" : "Lato",
					"fontsize" : 30.0,
					"hidden" : 1,
					"id" : "obj-33",
					"lines" : 1,
					"maxclass" : "textedit",
					"numinlets" : 1,
					"numoutlets" : 4,
					"outlettype" : [ "", "int", "", "" ],
					"parameter_enable" : 0,
					"patching_rect" : [ 1078.409080624580383, 268.052628755569458, 316.0, 78.0 ],
					"presentation" : 1,
					"presentation_rect" : [ 1008.0, 512.0, 295.0, 52.0 ],
					"readonly" : 1,
					"text" : "Całkiem straszny",
					"textcolor" : [ 0.337254901960784, 0.384313725490196, 0.462745098039216, 1.0 ],
					"varname" : "label_scale5"
				}

			}
, 			{
				"box" : 				{
					"annotation" : "",
					"autoscroll" : 0,
					"bgcolor" : [ 1.0, 1.0, 1.0, 0.0 ],
					"bordercolor" : [ 0.349019607843137, 0.349019607843137, 0.349019607843137, 0.0 ],
					"fontname" : "Lato",
					"fontsize" : 30.0,
					"hidden" : 1,
					"id" : "obj-28",
					"lines" : 1,
					"maxclass" : "textedit",
					"numinlets" : 1,
					"numoutlets" : 4,
					"outlettype" : [ "", "int", "", "" ],
					"parameter_enable" : 0,
					"patching_rect" : [ 1078.409080624580383, 169.736840486526489, 316.0, 78.0 ],
					"presentation" : 1,
					"presentation_rect" : [ 1008.0, 411.0, 295.0, 52.0 ],
					"readonly" : 1,
					"text" : "Bardzo straszny",
					"textcolor" : [ 0.337254901960784, 0.384313725490196, 0.462745098039216, 1.0 ],
					"varname" : "label_scale6"
				}

			}
, 			{
				"box" : 				{
					"annotation" : "",
					"autoscroll" : 0,
					"bgcolor" : [ 1.0, 1.0, 1.0, 0.0 ],
					"bordercolor" : [ 0.349019607843137, 0.349019607843137, 0.349019607843137, 0.0 ],
					"fontname" : "Lato",
					"fontsize" : 30.0,
					"hidden" : 1,
					"id" : "obj-27",
					"lines" : 1,
					"maxclass" : "textedit",
					"numinlets" : 1,
					"numoutlets" : 4,
					"outlettype" : [ "", "int", "", "" ],
					"parameter_enable" : 0,
					"patching_rect" : [ 1078.409080624580383, 65.909090280532837, 316.0, 78.0 ],
					"presentation" : 1,
					"presentation_rect" : [ 1008.0, 310.0, 295.0, 52.0 ],
					"readonly" : 1,
					"text" : "Ekstremalnie straszny",
					"textcolor" : [ 0.337254901960784, 0.384313725490196, 0.462745098039216, 1.0 ],
					"varname" : "label_scale7"
				}

			}
, 			{
				"box" : 				{
					"id" : "obj-3",
					"maxclass" : "message",
					"numinlets" : 2,
					"numoutlets" : 1,
					"outlettype" : [ "" ],
					"patching_rect" : [ 370.868418216705322, 345.0, 38.0, 22.0 ],
					"text" : "int 50"
				}

			}
, 			{
				"box" : 				{
					"id" : "obj-4",
					"maxclass" : "newobj",
					"numinlets" : 16,
					"numoutlets" : 1,
					"outlettype" : [ "multichannelsignal" ],
					"patching_rect" : [ 654.0, 768.0, 248.0, 22.0 ],
					"text" : "mc.combine~ 16"
				}

			}
, 			{
				"box" : 				{
					"id" : "obj-29",
					"maxclass" : "gain~",
					"multichannelvariant" : 0,
					"numinlets" : 1,
					"numoutlets" : 2,
					"outlettype" : [ "signal", "" ],
					"parameter_enable" : 0,
					"patching_rect" : [ 734.0, 573.0, 29.0, 143.0 ]
				}

			}
, 			{
				"box" : 				{
					"id" : "obj-13",
					"maxclass" : "button",
					"numinlets" : 1,
					"numoutlets" : 1,
					"outlettype" : [ "bang" ],
					"parameter_enable" : 0,
					"patching_rect" : [ 786.0, 497.0, 24.0, 24.0 ],
					"varname" : "btn_wake_up"
				}

			}
, 			{
				"box" : 				{
					"id" : "obj-12",
					"maxclass" : "message",
					"numinlets" : 2,
					"numoutlets" : 1,
					"outlettype" : [ "" ],
					"patching_rect" : [ 152.736840486526489, 246.0, 70.0, 22.0 ],
					"text" : "fullscreen 1"
				}

			}
, 			{
				"box" : 				{
					"id" : "obj-9",
					"maxclass" : "message",
					"numinlets" : 2,
					"numoutlets" : 1,
					"outlettype" : [ "" ],
					"patching_rect" : [ 77.631578207015991, 169.736840486526489, 127.0, 22.0 ],
					"text" : "title \"Test odsłuchowy\""
				}

			}
, 			{
				"box" : 				{
					"id" : "obj-8",
					"maxclass" : "mc.ezdac~",
					"numinlets" : 1,
					"numoutlets" : 0,
					"patching_rect" : [ 249.999997615814209, 485.526311159133911, 45.0, 45.0 ]
				}

			}
, 			{
				"box" : 				{
					"id" : "obj-32",
					"maxclass" : "newobj",
					"numinlets" : 2,
					"numoutlets" : 1,
					"outlettype" : [ "bang" ],
					"patching_rect" : [ 827.0, 547.0, 67.0, 22.0 ],
					"text" : "delay 1000"
				}

			}
, 			{
				"box" : 				{
					"id" : "obj-30",
					"maxclass" : "newobj",
					"numinlets" : 2,
					"numoutlets" : 1,
					"outlettype" : [ "signal" ],
					"patching_rect" : [ 786.0, 689.0, 29.5, 22.0 ],
					"text" : "*~"
				}

			}
, 			{
				"box" : 				{
					"id" : "obj-25",
					"maxclass" : "message",
					"numinlets" : 2,
					"numoutlets" : 1,
					"outlettype" : [ "" ],
					"patching_rect" : [ 827.0, 580.0, 29.5, 22.0 ],
					"text" : "0"
				}

			}
, 			{
				"box" : 				{
					"id" : "obj-23",
					"maxclass" : "message",
					"numinlets" : 2,
					"numoutlets" : 1,
					"outlettype" : [ "" ],
					"patching_rect" : [ 786.0, 580.0, 29.5, 22.0 ],
					"text" : "1"
				}

			}
, 			{
				"box" : 				{
					"fontname" : "Arial",
					"fontsize" : 13.0,
					"id" : "obj-14",
					"maxclass" : "newobj",
					"numinlets" : 5,
					"numoutlets" : 4,
					"outlettype" : [ "signal", "signal", "", "" ],
					"patching_rect" : [ 786.0, 623.0, 128.0, 23.0 ],
					"text" : "adsr~ 100 100 1 100"
				}

			}
, 			{
				"box" : 				{
					"id" : "obj-104",
					"maxclass" : "newobj",
					"numinlets" : 2,
					"numoutlets" : 16,
					"outlettype" : [ "signal", "signal", "signal", "signal", "signal", "signal", "signal", "signal", "signal", "signal", "signal", "signal", "signal", "signal", "signal", "signal" ],
					"patching_rect" : [ 431.578943252563477, 385.526312112808228, 411.0, 22.0 ],
					"text" : "gate~ 16",
					"varname" : "channel_selector"
				}

			}
, 			{
				"box" : 				{
					"id" : "obj-103",
					"maxclass" : "newobj",
					"numinlets" : 1,
					"numoutlets" : 1,
					"outlettype" : [ "signal" ],
					"patching_rect" : [ 820.0, 656.0, 38.0, 22.0 ],
					"text" : "pink~"
				}

			}
, 			{
				"box" : 				{
					"id" : "obj-97",
					"maxclass" : "message",
					"numinlets" : 2,
					"numoutlets" : 1,
					"outlettype" : [ "" ],
					"patching_rect" : [ 173.684208869934082, 1260.526303768157959, 53.0, 22.0 ],
					"text" : "list 0 1 1"
				}

			}
, 			{
				"box" : 				{
					"id" : "obj-98",
					"maxclass" : "message",
					"numinlets" : 2,
					"numoutlets" : 1,
					"outlettype" : [ "" ],
					"patching_rect" : [ 173.684208869934082, 1210.526304244995117, 53.0, 22.0 ],
					"text" : "list 0 0 1"
				}

			}
, 			{
				"box" : 				{
					"id" : "obj-81",
					"maxclass" : "message",
					"numinlets" : 2,
					"numoutlets" : 1,
					"outlettype" : [ "" ],
					"patching_rect" : [ 173.684208869934082, 1068.421042442321777, 53.0, 22.0 ],
					"text" : "list 0 1 1"
				}

			}
, 			{
				"box" : 				{
					"id" : "obj-73",
					"maxclass" : "message",
					"numinlets" : 2,
					"numoutlets" : 1,
					"outlettype" : [ "" ],
					"patching_rect" : [ 173.684208869934082, 1018.421042919158936, 53.0, 22.0 ],
					"text" : "list 0 0 1"
				}

			}
, 			{
				"box" : 				{
					"id" : "obj-68",
					"maxclass" : "message",
					"numinlets" : 2,
					"numoutlets" : 1,
					"outlettype" : [ "" ],
					"patching_rect" : [ 173.684208869934082, 748.684203386306763, 53.0, 22.0 ],
					"text" : "list 0 2 1"
				}

			}
, 			{
				"box" : 				{
					"id" : "obj-67",
					"maxclass" : "message",
					"numinlets" : 2,
					"numoutlets" : 1,
					"outlettype" : [ "" ],
					"patching_rect" : [ 173.684208869934082, 698.684203863143921, 53.0, 22.0 ],
					"text" : "list 0 1 1"
				}

			}
, 			{
				"box" : 				{
					"id" : "obj-66",
					"maxclass" : "message",
					"numinlets" : 2,
					"numoutlets" : 1,
					"outlettype" : [ "" ],
					"patching_rect" : [ 173.684208869934082, 646.052625417709351, 53.0, 22.0 ],
					"text" : "list 0 0 1"
				}

			}
, 			{
				"box" : 				{
					"id" : "obj-56",
					"maxclass" : "gain~",
					"multichannelvariant" : 1,
					"numinlets" : 1,
					"numoutlets" : 2,
					"outlettype" : [ "multichannelsignal", "" ],
					"parameter_enable" : 0,
					"patching_rect" : [ 281.578944683074951, 318.42104959487915, 33.0, 144.0 ]
				}

			}
, 			{
				"box" : 				{
					"id" : "obj-41",
					"maxclass" : "newobj",
					"numinlets" : 16,
					"numoutlets" : 1,
					"outlettype" : [ "multichannelsignal" ],
					"patching_rect" : [ 431.578943252563477, 427.631574869155884, 411.0, 22.0 ],
					"text" : "mc.combine~ 16"
				}

			}
, 			{
				"box" : 				{
					"id" : "obj-75",
					"maxclass" : "message",
					"numinlets" : 2,
					"numoutlets" : 1,
					"outlettype" : [ "" ],
					"patching_rect" : [ 281.578944683074951, 211.842103242874146, 38.0, 22.0 ],
					"text" : "int 82"
				}

			}
, 			{
				"box" : 				{
					"id" : "obj-31",
					"maxclass" : "message",
					"numinlets" : 2,
					"numoutlets" : 1,
					"outlettype" : [ "" ],
					"patching_rect" : [ 77.631578207015991, 211.842103242874146, 85.0, 22.0 ],
					"text" : "presentation 1"
				}

			}
, 			{
				"box" : 				{
					"id" : "obj-84",
					"maxclass" : "message",
					"numinlets" : 2,
					"numoutlets" : 1,
					"outlettype" : [ "" ],
					"patching_rect" : [ 169.736840486526489, 211.842103242874146, 53.0, 22.0 ],
					"text" : "locked 1"
				}

			}
, 			{
				"box" : 				{
					"id" : "obj-82",
					"maxclass" : "newobj",
					"numinlets" : 1,
					"numoutlets" : 2,
					"outlettype" : [ "", "" ],
					"patching_rect" : [ 77.631578207015991, 276.0, 67.0, 22.0 ],
					"save" : [ "#N", "thispatcher", ";", "#Q", "end", ";" ],
					"text" : "thispatcher"
				}

			}
, 			{
				"box" : 				{
					"id" : "obj-76",
					"maxclass" : "message",
					"numinlets" : 2,
					"numoutlets" : 1,
					"outlettype" : [ "" ],
					"patching_rect" : [ 35.526315450668335, 427.631574869155884, 205.0, 22.0 ],
					"text" : "on_agreement_state_changed $2 $3"
				}

			}
, 			{
				"box" : 				{
					"id" : "obj-74",
					"maxclass" : "message",
					"numinlets" : 2,
					"numoutlets" : 1,
					"outlettype" : [ "" ],
					"patching_rect" : [ 35.526315450668335, 389.47368049621582, 205.0, 22.0 ],
					"text" : "on_hearing_state_changed $2 $3"
				}

			}
, 			{
				"box" : 				{
					"id" : "obj-72",
					"maxclass" : "message",
					"numinlets" : 2,
					"numoutlets" : 1,
					"outlettype" : [ "" ],
					"patching_rect" : [ 36.842104911804199, 352.631575584411621, 204.0, 22.0 ],
					"text" : "on_age_changed $1"
				}

			}
, 			{
				"box" : 				{
					"id" : "obj-70",
					"maxclass" : "message",
					"numinlets" : 2,
					"numoutlets" : 1,
					"outlettype" : [ "" ],
					"patching_rect" : [ 36.842104911804199, 318.42104959487915, 204.0, 22.0 ],
					"text" : "on_gender_state_changed $2 $3"
				}

			}
, 			{
				"box" : 				{
					"id" : "obj-17",
					"maxclass" : "toggle",
					"numinlets" : 1,
					"numoutlets" : 1,
					"outlettype" : [ "int" ],
					"parameter_enable" : 0,
					"patching_rect" : [ 249.999997615814209, 210.526313781738281, 24.0, 24.0 ]
				}

			}
, 			{
				"box" : 				{
					"id" : "obj-24",
					"maxclass" : "newobj",
					"numinlets" : 1,
					"numoutlets" : 0,
					"patching_rect" : [ 44.736841678619385, 80.26315712928772, 67.0, 22.0 ],
					"saved_object_attributes" : 					{
						"allwindowsactive" : 1,
						"appicon_mac" : "",
						"appicon_win" : "",
						"audiosupport" : 1,
						"bundleidentifier" : "edu.but.antoninastefanowska",
						"cantclosetoplevelpatchers" : 0,
						"cefsupport" : 0,
						"copysupport" : 1,
						"database" : 0,
						"extensions" : 1,
						"gensupport" : 0,
						"midisupport" : 1,
						"noloadbangdefeating" : 0,
						"overdrive" : 0,
						"preffilename" : "",
						"searchformissingfiles" : 1,
						"statusvisible" : 1,
						"usesearchpath" : 0
					}
,
					"text" : "standalone"
				}

			}
, 			{
				"box" : 				{
					"id" : "obj-16",
					"maxclass" : "newobj",
					"numinlets" : 1,
					"numoutlets" : 1,
					"outlettype" : [ "bang" ],
					"patching_rect" : [ 249.999997615814209, 135.526314496994019, 58.0, 22.0 ],
					"text" : "loadbang"
				}

			}
, 			{
				"box" : 				{
					"id" : "obj-15",
					"maxclass" : "message",
					"numinlets" : 2,
					"numoutlets" : 1,
					"outlettype" : [ "" ],
					"patching_rect" : [ 431.578943252563477, 135.526314496994019, 87.0, 22.0 ],
					"text" : "go_to_scene 5"
				}

			}
, 			{
				"box" : 				{
					"id" : "obj-35",
					"maxclass" : "newobj",
					"numinlets" : 4,
					"numoutlets" : 0,
					"patching_rect" : [ 44.736841678619385, 44.736841678619385, 148.0, 22.0 ],
					"text" : "bgcolor 0.796 0.863 0.925"
				}

			}
, 			{
				"box" : 				{
					"id" : "obj-5",
					"maxclass" : "message",
					"numinlets" : 2,
					"numoutlets" : 1,
					"outlettype" : [ "" ],
					"patching_rect" : [ 339.473680973052979, 211.842103242874146, 64.0, 22.0 ],
					"text" : "compile"
				}

			}
, 			{
				"box" : 				{
					"id" : "obj-10",
					"maxclass" : "message",
					"numinlets" : 2,
					"numoutlets" : 1,
					"outlettype" : [ "" ],
					"patching_rect" : [ 553.947363138198853, 296.052628755569458, 113.0, 22.0 ],
					"text" : "on_track_finished"
				}

			}
, 			{
				"box" : 				{
					"id" : "obj-7",
					"maxclass" : "message",
					"numinlets" : 2,
					"numoutlets" : 1,
					"outlettype" : [ "" ],
					"patching_rect" : [ 480.263153314590454, 215.789471626281738, 177.0, 22.0 ],
					"text" : "on_score_state_changed $2 $3"
				}

			}
, 			{
				"box" : 				{
					"id" : "obj-2",
					"maxclass" : "message",
					"numinlets" : 2,
					"numoutlets" : 1,
					"outlettype" : [ "" ],
					"patching_rect" : [ 782.894729375839233, 215.789471626281738, 141.0, 22.0 ],
					"text" : "on_next_button_pressed"
				}

			}
, 			{
				"box" : 				{
					"id" : "obj-122",
					"maxclass" : "newobj",
					"numinlets" : 1,
					"numoutlets" : 2,
					"outlettype" : [ "", "" ],
					"patching_rect" : [ 431.578943252563477, 296.052628755569458, 98.0, 22.0 ],
					"saved_object_attributes" : 					{
						"filename" : "controller.js",
						"parameter_enable" : 0
					}
,
					"text" : "js controller.js 16"
				}

			}
, 			{
				"box" : 				{
					"id" : "obj-111",
					"maxclass" : "newobj",
					"numinlets" : 2,
					"numoutlets" : 2,
					"outlettype" : [ "signal", "bang" ],
					"patching_rect" : [ 431.578943252563477, 339.473680973052979, 99.0, 22.0 ],
					"text" : "sfplay~ 1"
				}

			}
, 			{
				"box" : 				{
					"active" : 0,
					"bgcolor" : [ 0.815686274509804, 0.509803921568627, 0.262745098039216, 1.0 ],
					"fontface" : 1,
					"fontsize" : 30.0,
					"hidden" : 1,
					"id" : "obj-6",
					"maxclass" : "textbutton",
					"numinlets" : 1,
					"numoutlets" : 3,
					"outlettype" : [ "", "", "int" ],
					"parameter_enable" : 0,
					"patching_rect" : [ 782.894729375839233, 115.789472579956055, 138.0, 60.0 ],
					"presentation" : 1,
					"presentation_rect" : [ 771.0, 1019.0, 355.0, 61.0 ],
					"rounded" : 25.0,
					"style" : "rnbolight",
					"text" : "Dalej",
					"texton" : "Dalej",
					"textoncolor" : [ 0.796078431372549, 0.862745098039216, 0.925490196078431, 1.0 ],
					"varname" : "btn_next"
				}

			}
, 			{
				"box" : 				{
					"annotation" : "",
					"autoscroll" : 0,
					"bgcolor" : [ 0.796078431372549, 0.862745098039216, 0.925490196078431, 0.0 ],
					"bordercolor" : [ 0.337254901960784, 0.384313725490196, 0.462745098039216, 0.0 ],
					"fontface" : 1,
					"fontsize" : 50.0,
					"hidden" : 1,
					"id" : "obj-78",
					"lines" : 1,
					"maxclass" : "textedit",
					"numinlets" : 1,
					"numoutlets" : 4,
					"outlettype" : [ "", "int", "", "" ],
					"parameter_enable" : 0,
					"patching_rect" : [ 1087.499989628791809, 1264.772715210914612, 227.0, 78.0 ],
					"presentation" : 1,
					"presentation_rect" : [ 844.0, 145.0, 210.0, 75.0 ],
					"readonly" : 1,
					"style" : "rnbolight",
					"text" : "48/48",
					"textcolor" : [ 0.337254901960784, 0.384313725490196, 0.462745098039216, 1.0 ],
					"textjustification" : 1,
					"varname" : "label_progress"
				}

			}
, 			{
				"box" : 				{
					"columns" : 1,
					"hidden" : 1,
					"id" : "obj-20",
					"maxclass" : "matrixctrl",
					"numinlets" : 1,
					"numoutlets" : 2,
					"one/column" : 1,
					"one/matrix" : 1,
					"one/row" : 1,
					"outlettype" : [ "list", "list" ],
					"parameter_enable" : 0,
					"patching_rect" : [ 961.84209599999997, 44.736842000000003, 107.0, 696.0 ],
					"presentation" : 1,
					"presentation_rect" : [ 899.0, 282.0, 107.0, 696.0 ],
					"rows" : 7,
					"style" : "rnbolight",
					"varname" : "radiobtn_score",
					"verticalmargin" : 0
				}

			}
, 			{
				"box" : 				{
					"annotation" : "",
					"autoscroll" : 0,
					"bgcolor" : [ 0.796078431372549, 0.862745098039216, 0.925490196078431, 0.0 ],
					"bordercolor" : [ 0.337254901960784, 0.384313725490196, 0.462745098039216, 0.0 ],
					"fontsize" : 40.0,
					"hidden" : 1,
					"id" : "obj-11",
					"lines" : 1,
					"maxclass" : "textedit",
					"numinlets" : 1,
					"numoutlets" : 4,
					"outlettype" : [ "", "int", "", "" ],
					"parameter_enable" : 0,
					"patching_rect" : [ 1034.090899229049683, 845.578939199447632, 331.0, 60.0 ],
					"presentation" : 1,
					"presentation_rect" : [ 355.5, 145.0, 182.0, 54.0 ],
					"readonly" : 1,
					"style" : "rnbolight",
					"text" : "Trening",
					"textcolor" : [ 0.337254901960784, 0.384313725490196, 0.462745098039216, 1.0 ],
					"textjustification" : 1,
					"varname" : "label_training"
				}

			}
, 			{
				"box" : 				{
					"annotation" : "",
					"autoscroll" : 0,
					"bgcolor" : [ 1.0, 1.0, 1.0, 0.0 ],
					"bordercolor" : [ 0.349019607843137, 0.349019607843137, 0.349019607843137, 0.0 ],
					"fontface" : 1,
					"fontname" : "Lato",
					"fontsize" : 30.0,
					"hidden" : 1,
					"id" : "obj-18",
					"lines" : 1,
					"maxclass" : "textedit",
					"numinlets" : 1,
					"numoutlets" : 4,
					"outlettype" : [ "", "int", "", "" ],
					"parameter_enable" : 0,
					"patching_rect" : [ 993.181808710098267, 916.033483982086182, 412.0, 85.0 ],
					"presentation" : 1,
					"presentation_rect" : [ 471.0, 209.0, 963.0, 46.0 ],
					"readonly" : 1,
					"text" : "Odtwarzany dźwięk jest...",
					"textcolor" : [ 0.337254901960784, 0.384313725490196, 0.462745098039216, 1.0 ],
					"textjustification" : 1,
					"varname" : "label_question"
				}

			}
, 			{
				"box" : 				{
					"annotation" : "",
					"autoscroll" : 0,
					"background" : 1,
					"bgcolor" : [ 1.0, 1.0, 1.0, 0.0 ],
					"bordercolor" : [ 0.349019607843137, 0.349019607843137, 0.349019607843137, 0.0 ],
					"fontname" : "Lato",
					"fontsize" : 20.0,
					"hidden" : 1,
					"id" : "obj-95",
					"lines" : 1,
					"maxclass" : "textedit",
					"numinlets" : 1,
					"numoutlets" : 4,
					"outlettype" : [ "", "int", "", "" ],
					"parameter_enable" : 0,
					"patching_rect" : [ 299.999997138977051, 1256.578935384750366, 60.377361000000001, 30.0 ],
					"presentation" : 1,
					"presentation_rect" : [ 485.0, 818.0, 60.377361000000001, 30.0 ],
					"readonly" : 1,
					"text" : "Tak",
					"textcolor" : [ 0.337254901960784, 0.384313725490196, 0.462745098039216, 1.0 ],
					"varname" : "label_personalinfo12"
				}

			}
, 			{
				"box" : 				{
					"annotation" : "",
					"autoscroll" : 0,
					"background" : 1,
					"bgcolor" : [ 1.0, 1.0, 1.0, 0.0 ],
					"bordercolor" : [ 0.349019607843137, 0.349019607843137, 0.349019607843137, 0.0 ],
					"fontname" : "Lato",
					"fontsize" : 20.0,
					"hidden" : 1,
					"id" : "obj-96",
					"lines" : 1,
					"maxclass" : "textedit",
					"numinlets" : 1,
					"numoutlets" : 4,
					"outlettype" : [ "", "int", "", "" ],
					"parameter_enable" : 0,
					"patching_rect" : [ 299.999997138977051, 1206.578935861587524, 60.377361000000001, 30.0 ],
					"presentation" : 1,
					"presentation_rect" : [ 485.0, 768.0, 60.377361000000001, 30.0 ],
					"readonly" : 1,
					"text" : "Nie",
					"textcolor" : [ 0.337254901960784, 0.384313725490196, 0.462745098039216, 1.0 ],
					"varname" : "label_personalinfo11"
				}

			}
, 			{
				"box" : 				{
					"annotation" : "",
					"autoscroll" : 0,
					"background" : 1,
					"bgcolor" : [ 1.0, 1.0, 1.0, 0.0 ],
					"bordercolor" : [ 0.349019607843137, 0.349019607843137, 0.349019607843137, 0.0 ],
					"fontname" : "Lato",
					"fontsize" : 20.0,
					"hidden" : 1,
					"id" : "obj-86",
					"lines" : 1,
					"maxclass" : "textedit",
					"numinlets" : 1,
					"numoutlets" : 4,
					"outlettype" : [ "", "int", "", "" ],
					"parameter_enable" : 0,
					"patching_rect" : [ 299.999997138977051, 1064.473674058914185, 60.377361000000001, 30.0 ],
					"presentation" : 1,
					"presentation_rect" : [ 485.0, 627.0, 60.377361000000001, 30.0 ],
					"readonly" : 1,
					"text" : "Tak",
					"textcolor" : [ 0.337254901960784, 0.384313725490196, 0.462745098039216, 1.0 ],
					"varname" : "label_personalinfo10"
				}

			}
, 			{
				"box" : 				{
					"annotation" : "",
					"autoscroll" : 0,
					"background" : 1,
					"bgcolor" : [ 1.0, 1.0, 1.0, 0.0 ],
					"bordercolor" : [ 0.349019607843137, 0.349019607843137, 0.349019607843137, 0.0 ],
					"fontname" : "Lato",
					"fontsize" : 20.0,
					"hidden" : 1,
					"id" : "obj-83",
					"lines" : 1,
					"maxclass" : "textedit",
					"numinlets" : 1,
					"numoutlets" : 4,
					"outlettype" : [ "", "int", "", "" ],
					"parameter_enable" : 0,
					"patching_rect" : [ 299.999997138977051, 1014.473674535751343, 60.377361000000001, 30.0 ],
					"presentation" : 1,
					"presentation_rect" : [ 485.0, 577.0, 60.377361000000001, 30.0 ],
					"readonly" : 1,
					"text" : "Nie",
					"textcolor" : [ 0.337254901960784, 0.384313725490196, 0.462745098039216, 1.0 ],
					"varname" : "label_personalinfo9"
				}

			}
, 			{
				"box" : 				{
					"annotation" : "",
					"autoscroll" : 0,
					"background" : 1,
					"bgcolor" : [ 1.0, 1.0, 1.0, 0.0 ],
					"bordercolor" : [ 0.349019607843137, 0.349019607843137, 0.349019607843137, 0.0 ],
					"fontname" : "Lato",
					"fontsize" : 20.0,
					"hidden" : 1,
					"id" : "obj-71",
					"lines" : 1,
					"maxclass" : "textedit",
					"numinlets" : 1,
					"numoutlets" : 4,
					"outlettype" : [ "", "int", "", "" ],
					"parameter_enable" : 0,
					"patching_rect" : [ 297.368418216705322, 740.789466619491577, 185.0, 38.0 ],
					"presentation" : 1,
					"presentation_rect" : [ 483.0, 400.0, 170.754725000000008, 54.0 ],
					"readonly" : 1,
					"text" : "Nie chcę podawać\n",
					"textcolor" : [ 0.337254901960784, 0.384313725490196, 0.462745098039216, 1.0 ],
					"varname" : "label_personalinfo8"
				}

			}
, 			{
				"box" : 				{
					"annotation" : "",
					"autoscroll" : 0,
					"background" : 1,
					"bgcolor" : [ 1.0, 1.0, 1.0, 0.0 ],
					"bordercolor" : [ 0.349019607843137, 0.349019607843137, 0.349019607843137, 0.0 ],
					"fontname" : "Lato",
					"fontsize" : 20.0,
					"hidden" : 1,
					"id" : "obj-69",
					"lines" : 1,
					"maxclass" : "textedit",
					"numinlets" : 1,
					"numoutlets" : 4,
					"outlettype" : [ "", "int", "", "" ],
					"parameter_enable" : 0,
					"patching_rect" : [ 297.368418216705322, 694.736835479736328, 123.584911000000005, 30.0 ],
					"presentation" : 1,
					"presentation_rect" : [ 483.0, 353.0, 123.584911000000005, 30.0 ],
					"readonly" : 1,
					"text" : "Kobieta",
					"textcolor" : [ 0.337254901960784, 0.384313725490196, 0.462745098039216, 1.0 ],
					"varname" : "label_personalinfo7"
				}

			}
, 			{
				"box" : 				{
					"annotation" : "",
					"autoscroll" : 0,
					"background" : 1,
					"bgcolor" : [ 1.0, 1.0, 1.0, 0.0 ],
					"bordercolor" : [ 0.349019607843137, 0.349019607843137, 0.349019607843137, 0.0 ],
					"fontname" : "Lato",
					"fontsize" : 20.0,
					"hidden" : 1,
					"id" : "obj-60",
					"lines" : 1,
					"maxclass" : "textedit",
					"numinlets" : 1,
					"numoutlets" : 4,
					"outlettype" : [ "", "int", "", "" ],
					"parameter_enable" : 0,
					"patching_rect" : [ 297.368418216705322, 642.105257034301758, 123.584911000000005, 30.0 ],
					"presentation" : 1,
					"presentation_rect" : [ 483.0, 300.0, 123.584911000000005, 30.0 ],
					"readonly" : 1,
					"text" : "Mężczyzna",
					"textcolor" : [ 0.337254901960784, 0.384313725490196, 0.462745098039216, 1.0 ],
					"varname" : "label_personalinfo6"
				}

			}
, 			{
				"box" : 				{
					"annotation" : "",
					"autoscroll" : 0,
					"background" : 1,
					"bgcolor" : [ 0.796078431372549, 0.862745098039216, 0.925490196078431, 0.0 ],
					"bordercolor" : [ 0.337254901960784, 0.384313725490196, 0.462745098039216, 0.0 ],
					"fontsize" : 40.0,
					"hidden" : 1,
					"id" : "obj-1",
					"linecount" : 22,
					"lines" : 1,
					"maxclass" : "textedit",
					"numinlets" : 1,
					"numoutlets" : 4,
					"outlettype" : [ "", "int", "", "" ],
					"parameter_enable" : 0,
					"patching_rect" : [ 973.863627076148987, 1010.22726309299469, 458.0, 104.0 ],
					"presentation" : 1,
					"presentation_linecount" : 11,
					"presentation_rect" : [ 355.5, 232.0, 1187.0, 666.0 ],
					"readonly" : 1,
					"style" : "rnbolight",
					"text" : "Dziękuję za chęć udziału w teście odsłuchowym. Wyniki niniejszych badań zostaną wykorzystane w pracy doktorskiej dotyczącej wpływu dźwięku przestrzennego na emocje oraz w publikacji naukowej. \n\nTwoim zadaniem będzie ocena uczucia strachu w odtwarzanych próbkach dźwiękowych. Przewidywany czas testu wynosi ok. 10 min. \n\nNiniejszy formularz składa się z ankiety osobowej, części treningowej oraz testu odsłuchowego.",
					"textcolor" : [ 0.337254901960784, 0.384313725490196, 0.462745098039216, 1.0 ],
					"varname" : "label_welcome"
				}

			}
, 			{
				"box" : 				{
					"annotation" : "",
					"autoscroll" : 0,
					"background" : 1,
					"bgcolor" : [ 0.796078431372549, 0.862745098039216, 0.925490196078431, 0.0 ],
					"bordercolor" : [ 0.337254901960784, 0.384313725490196, 0.462745098039216, 0.0 ],
					"fontface" : 0,
					"fontsize" : 60.0,
					"hidden" : 1,
					"id" : "obj-77",
					"linecount" : 13,
					"lines" : 1,
					"maxclass" : "textedit",
					"numinlets" : 1,
					"numoutlets" : 4,
					"outlettype" : [ "", "int", "", "" ],
					"parameter_enable" : 0,
					"patching_rect" : [ 973.863627076148987, 1136.363625526428223, 458.0, 78.0 ],
					"presentation" : 1,
					"presentation_linecount" : 6,
					"presentation_rect" : [ 355.5, 232.0, 1187.0, 666.0 ],
					"readonly" : 1,
					"style" : "rnbolight",
					"text" : "Koniec części treningowej.\n\nJeśli jesteś gotowy/a do rozpoczęcia głównego testu odsłuchowego oraz odtworzenia pierwszej próbki, wciśnij przycisk \"Dalej\".",
					"textcolor" : [ 0.337254901960784, 0.384313725490196, 0.462745098039216, 1.0 ],
					"textjustification" : 1,
					"varname" : "label_pretest"
				}

			}
, 			{
				"box" : 				{
					"annotation" : "",
					"autoscroll" : 0,
					"background" : 1,
					"bgcolor" : [ 0.796078431372549, 0.862745098039216, 0.925490196078431, 0.0 ],
					"bordercolor" : [ 0.337254901960784, 0.384313725490196, 0.462745098039216, 0.0 ],
					"fontface" : 1,
					"fontsize" : 60.0,
					"id" : "obj-80",
					"linecount" : 5,
					"lines" : 1,
					"maxclass" : "textedit",
					"numinlets" : 1,
					"numoutlets" : 4,
					"outlettype" : [ "", "int", "", "" ],
					"parameter_enable" : 0,
					"patching_rect" : [ 973.863627076148987, 1496.590894818305969, 454.0, 78.0 ],
					"presentation" : 1,
					"presentation_linecount" : 3,
					"presentation_rect" : [ 355.5, 232.0, 1187.0, 666.0 ],
					"readonly" : 1,
					"style" : "rnbolight",
					"text" : "Koniec testu.\n\nDziękuję za poświęcony czas!",
					"textcolor" : [ 0.337254901960784, 0.384313725490196, 0.462745098039216, 1.0 ],
					"textjustification" : 1,
					"varname" : "label_goodbye"
				}

			}
, 			{
				"box" : 				{
					"annotation" : "",
					"background" : 1,
					"bgcolor" : [ 1.0, 1.0, 1.0, 0.0 ],
					"bordercolor" : [ 0.349019607843137, 0.349019607843137, 0.349019607843137, 0.0 ],
					"fontname" : "Lato",
					"fontsize" : 30.0,
					"hidden" : 1,
					"id" : "obj-64",
					"lines" : 1,
					"maxclass" : "textedit",
					"numinlets" : 1,
					"numoutlets" : 4,
					"outlettype" : [ "", "int", "", "" ],
					"parameter_enable" : 0,
					"patching_rect" : [ 249.999997615814209, 1136.842094421386719, 660.0, 45.0 ],
					"presentation" : 1,
					"presentation_rect" : [ 435.0, 700.0, 660.0, 45.0 ],
					"readonly" : 1,
					"text" : "4. Czy wyrażasz zgodę na udział w badaniu? ",
					"textcolor" : [ 0.337254901960784, 0.384313725490196, 0.462745098039216, 1.0 ],
					"varname" : "label_personalinfo5"
				}

			}
, 			{
				"box" : 				{
					"annotation" : "",
					"background" : 1,
					"bgcolor" : [ 1.0, 1.0, 1.0, 0.0 ],
					"bordercolor" : [ 0.349019607843137, 0.349019607843137, 0.349019607843137, 0.0 ],
					"fontname" : "Lato",
					"fontsize" : 30.0,
					"hidden" : 1,
					"id" : "obj-63",
					"linecount" : 2,
					"lines" : 1,
					"maxclass" : "textedit",
					"numinlets" : 1,
					"numoutlets" : 4,
					"outlettype" : [ "", "int", "", "" ],
					"parameter_enable" : 0,
					"patching_rect" : [ 249.999997615814209, 906.578938722610474, 660.0, 85.0 ],
					"presentation" : 1,
					"presentation_linecount" : 2,
					"presentation_rect" : [ 435.0, 469.0, 660.0, 85.0 ],
					"readonly" : 1,
					"text" : "3. Czy doświadczasz bądź doświadczyłeś/aś w przeszłości problemów ze słuchem? ",
					"textcolor" : [ 0.337254901960784, 0.384313725490196, 0.462745098039216, 1.0 ],
					"varname" : "label_personalinfo4"
				}

			}
, 			{
				"box" : 				{
					"background" : 1,
					"columns" : 1,
					"hidden" : 1,
					"id" : "obj-38",
					"maxclass" : "matrixctrl",
					"numinlets" : 1,
					"numoutlets" : 2,
					"one/column" : 1,
					"one/matrix" : 1,
					"one/row" : 1,
					"outlettype" : [ "list", "list" ],
					"parameter_enable" : 0,
					"patching_rect" : [ 249.999997615814209, 623.684204578399658, 46.226417243480682, 170.75472491979599 ],
					"presentation" : 1,
					"presentation_rect" : [ 435.0, 282.0, 46.226417243480682, 170.75472491979599 ],
					"rows" : 3,
					"style" : "rnbolight",
					"varname" : "radiobtn_gender",
					"verticalmargin" : 5,
					"verticalspacing" : 2
				}

			}
, 			{
				"box" : 				{
					"background" : 1,
					"columns" : 1,
					"hidden" : 1,
					"id" : "obj-40",
					"maxclass" : "matrixctrl",
					"numinlets" : 1,
					"numoutlets" : 2,
					"one/column" : 1,
					"one/matrix" : 1,
					"one/row" : 1,
					"outlettype" : [ "list", "list" ],
					"parameter_enable" : 0,
					"patching_rect" : [ 249.999997615814209, 1184.210515022277832, 47.584911406040192, 127.0 ],
					"presentation" : 1,
					"presentation_rect" : [ 435.0, 747.0, 47.584911406040192, 127.0 ],
					"rows" : 2,
					"style" : "rnbolight",
					"varname" : "radiobtn_agreement",
					"verticalmargin" : 5,
					"verticalspacing" : 2
				}

			}
, 			{
				"box" : 				{
					"background" : 1,
					"columns" : 1,
					"hidden" : 1,
					"id" : "obj-48",
					"maxclass" : "matrixctrl",
					"numinlets" : 1,
					"numoutlets" : 2,
					"one/column" : 1,
					"one/matrix" : 1,
					"one/row" : 1,
					"outlettype" : [ "list", "list" ],
					"parameter_enable" : 0,
					"patching_rect" : [ 249.999997615814209, 993.421043157577515, 47.584911406040192, 127.0 ],
					"presentation" : 1,
					"presentation_rect" : [ 435.0, 556.0, 47.584911406040192, 127.0 ],
					"rows" : 2,
					"style" : "rnbolight",
					"varname" : "radiobtn_hearing",
					"verticalmargin" : 5,
					"verticalspacing" : 2
				}

			}
, 			{
				"box" : 				{
					"background" : 1,
					"fontsize" : 25.0,
					"hidden" : 1,
					"id" : "obj-47",
					"items" : [ "Wybierz", ",", "Poniżej 18", ",", "18-25", ",", "26-35", ",", "36-50", ",", "Powyżej 50" ],
					"maxclass" : "umenu",
					"numinlets" : 1,
					"numoutlets" : 3,
					"outlettype" : [ "int", "", "" ],
					"parameter_enable" : 0,
					"patching_rect" : [ 249.999997615814209, 856.578939199447632, 205.0, 38.0 ],
					"presentation" : 1,
					"presentation_rect" : [ 771.0, 275.0, 205.0, 38.0 ],
					"style" : "rnbolight",
					"textcolor" : [ 0.337254901960784, 0.384313725490196, 0.462745098039216, 1.0 ],
					"varname" : "combobox_age"
				}

			}
, 			{
				"box" : 				{
					"annotation" : "",
					"background" : 1,
					"bgcolor" : [ 1.0, 1.0, 1.0, 0.0 ],
					"bordercolor" : [ 0.349019607843137, 0.349019607843137, 0.349019607843137, 0.0 ],
					"fontname" : "Lato",
					"fontsize" : 30.0,
					"hidden" : 1,
					"id" : "obj-61",
					"lines" : 1,
					"maxclass" : "textedit",
					"numinlets" : 1,
					"numoutlets" : 4,
					"outlettype" : [ "", "int", "", "" ],
					"parameter_enable" : 0,
					"patching_rect" : [ 249.999997615814209, 565.789468288421631, 123.433961540460587, 55.0 ],
					"presentation" : 1,
					"presentation_rect" : [ 435.0, 232.0, 123.433961540460587, 55.0 ],
					"readonly" : 1,
					"text" : "1. Płeć",
					"textcolor" : [ 0.337254901960784, 0.384313725490196, 0.462745098039216, 1.0 ],
					"varname" : "label_personalinfo2"
				}

			}
, 			{
				"box" : 				{
					"annotation" : "",
					"background" : 1,
					"bgcolor" : [ 1.0, 1.0, 1.0, 0.0 ],
					"bordercolor" : [ 0.349019607843137, 0.349019607843137, 0.349019607843137, 0.0 ],
					"fontname" : "Lato",
					"fontsize" : 30.0,
					"hidden" : 1,
					"id" : "obj-62",
					"lines" : 1,
					"maxclass" : "textedit",
					"numinlets" : 1,
					"numoutlets" : 4,
					"outlettype" : [ "", "int", "", "" ],
					"parameter_enable" : 0,
					"patching_rect" : [ 249.999997615814209, 807.894729137420654, 123.433961540460587, 55.0 ],
					"presentation" : 1,
					"presentation_rect" : [ 771.0, 227.0, 123.433961540460587, 55.0 ],
					"readonly" : 1,
					"text" : "2. Wiek",
					"textcolor" : [ 0.337254901960784, 0.384313725490196, 0.462745098039216, 1.0 ],
					"varname" : "label_personalinfo3"
				}

			}
, 			{
				"box" : 				{
					"annotation" : "",
					"autoscroll" : 0,
					"background" : 1,
					"bgcolor" : [ 0.796078431372549, 0.862745098039216, 0.925490196078431, 0.0 ],
					"bordercolor" : [ 0.337254901960784, 0.384313725490196, 0.462745098039216, 0.0 ],
					"fontsize" : 35.0,
					"hidden" : 1,
					"id" : "obj-55",
					"lines" : 1,
					"maxclass" : "textedit",
					"numinlets" : 1,
					"numoutlets" : 4,
					"outlettype" : [ "", "int", "", "" ],
					"parameter_enable" : 0,
					"patching_rect" : [ 1048.86362636089325, 1590.909075736999512, 303.0, 57.0 ],
					"presentation" : 1,
					"presentation_rect" : [ 801.0, 154.0, 303.0, 57.0 ],
					"readonly" : 1,
					"style" : "rnbolight",
					"text" : "Dane osobowe",
					"textcolor" : [ 0.337254901960784, 0.384313725490196, 0.462745098039216, 1.0 ],
					"textjustification" : 1,
					"varname" : "label_personalinfo1"
				}

			}
, 			{
				"box" : 				{
					"annotation" : "",
					"autoscroll" : 0,
					"background" : 1,
					"bgcolor" : [ 0.796078431372549, 0.862745098039216, 0.925490196078431, 0.0 ],
					"bordercolor" : [ 0.337254901960784, 0.384313725490196, 0.462745098039216, 0.0 ],
					"fontsize" : 40.0,
					"hidden" : 1,
					"id" : "obj-79",
					"linecount" : 31,
					"lines" : 1,
					"maxclass" : "textedit",
					"numinlets" : 1,
					"numoutlets" : 4,
					"outlettype" : [ "", "int", "", "" ],
					"parameter_enable" : 0,
					"patching_rect" : [ 975.0, 1361.0, 458.0, 102.0 ],
					"presentation" : 1,
					"presentation_linecount" : 16,
					"presentation_rect" : [ 355.5, 232.0, 1187.0, 666.0 ],
					"readonly" : 1,
					"style" : "rnbolight",
					"text" : "Instrukcja przeprowadzenia testu odsłuchowego:\n\n1. Każdy dźwięk odtworzony zostanie tylko raz natychmiast po naciśnięciu przycisku „Dalej”.\n\n2. Po odsłuchaniu próbki, odpowiedz na stwierdzenie widoczne na ekranie.\n\n3. Ocenę możesz zmienić tylko do momentu przejścia do następnej próbki dźwiękowej, nie ma możliwości powrotu do poprzednich ocen.\n\n4. Staraj się nie poruszać głową na boki w trakcie testu.\n\nJeśli zapoznałeś/aś się z instrukcją, wciśnij przycisk \"Dalej\", aby rozpocząć krótką sesję treningową.",
					"textcolor" : [ 0.337254901960784, 0.384313725490196, 0.462745098039216, 1.0 ],
					"varname" : "label_instruction"
				}

			}
 ],
		"lines" : [ 			{
				"patchline" : 				{
					"destination" : [ "obj-122", 0 ],
					"source" : [ "obj-10", 0 ]
				}

			}
, 			{
				"patchline" : 				{
					"destination" : [ "obj-30", 1 ],
					"source" : [ "obj-103", 0 ]
				}

			}
, 			{
				"patchline" : 				{
					"destination" : [ "obj-41", 15 ],
					"source" : [ "obj-104", 15 ]
				}

			}
, 			{
				"patchline" : 				{
					"destination" : [ "obj-41", 14 ],
					"source" : [ "obj-104", 14 ]
				}

			}
, 			{
				"patchline" : 				{
					"destination" : [ "obj-41", 13 ],
					"source" : [ "obj-104", 13 ]
				}

			}
, 			{
				"patchline" : 				{
					"destination" : [ "obj-41", 12 ],
					"source" : [ "obj-104", 12 ]
				}

			}
, 			{
				"patchline" : 				{
					"destination" : [ "obj-41", 11 ],
					"source" : [ "obj-104", 11 ]
				}

			}
, 			{
				"patchline" : 				{
					"destination" : [ "obj-41", 10 ],
					"source" : [ "obj-104", 10 ]
				}

			}
, 			{
				"patchline" : 				{
					"destination" : [ "obj-41", 9 ],
					"source" : [ "obj-104", 9 ]
				}

			}
, 			{
				"patchline" : 				{
					"destination" : [ "obj-41", 8 ],
					"source" : [ "obj-104", 8 ]
				}

			}
, 			{
				"patchline" : 				{
					"destination" : [ "obj-41", 7 ],
					"source" : [ "obj-104", 7 ]
				}

			}
, 			{
				"patchline" : 				{
					"destination" : [ "obj-41", 6 ],
					"source" : [ "obj-104", 6 ]
				}

			}
, 			{
				"patchline" : 				{
					"destination" : [ "obj-41", 5 ],
					"source" : [ "obj-104", 5 ]
				}

			}
, 			{
				"patchline" : 				{
					"destination" : [ "obj-41", 4 ],
					"source" : [ "obj-104", 4 ]
				}

			}
, 			{
				"patchline" : 				{
					"destination" : [ "obj-41", 3 ],
					"source" : [ "obj-104", 3 ]
				}

			}
, 			{
				"patchline" : 				{
					"destination" : [ "obj-41", 2 ],
					"source" : [ "obj-104", 2 ]
				}

			}
, 			{
				"patchline" : 				{
					"destination" : [ "obj-41", 1 ],
					"source" : [ "obj-104", 1 ]
				}

			}
, 			{
				"patchline" : 				{
					"destination" : [ "obj-41", 0 ],
					"source" : [ "obj-104", 0 ]
				}

			}
, 			{
				"patchline" : 				{
					"destination" : [ "obj-10", 0 ],
					"source" : [ "obj-111", 1 ]
				}

			}
, 			{
				"patchline" : 				{
					"destination" : [ "obj-104", 1 ],
					"source" : [ "obj-111", 0 ]
				}

			}
, 			{
				"patchline" : 				{
					"destination" : [ "obj-82", 0 ],
					"source" : [ "obj-12", 0 ]
				}

			}
, 			{
				"patchline" : 				{
					"destination" : [ "obj-104", 0 ],
					"source" : [ "obj-122", 1 ]
				}

			}
, 			{
				"patchline" : 				{
					"destination" : [ "obj-111", 0 ],
					"source" : [ "obj-122", 0 ]
				}

			}
, 			{
				"patchline" : 				{
					"destination" : [ "obj-23", 0 ],
					"order" : 1,
					"source" : [ "obj-13", 0 ]
				}

			}
, 			{
				"patchline" : 				{
					"destination" : [ "obj-32", 0 ],
					"order" : 0,
					"source" : [ "obj-13", 0 ]
				}

			}
, 			{
				"patchline" : 				{
					"destination" : [ "obj-30", 0 ],
					"source" : [ "obj-14", 0 ]
				}

			}
, 			{
				"patchline" : 				{
					"destination" : [ "obj-122", 0 ],
					"source" : [ "obj-15", 0 ]
				}

			}
, 			{
				"patchline" : 				{
					"destination" : [ "obj-12", 0 ],
					"order" : 5,
					"source" : [ "obj-16", 0 ]
				}

			}
, 			{
				"patchline" : 				{
					"destination" : [ "obj-17", 0 ],
					"order" : 3,
					"source" : [ "obj-16", 0 ]
				}

			}
, 			{
				"patchline" : 				{
					"destination" : [ "obj-3", 0 ],
					"order" : 0,
					"source" : [ "obj-16", 0 ]
				}

			}
, 			{
				"patchline" : 				{
					"destination" : [ "obj-31", 0 ],
					"order" : 6,
					"source" : [ "obj-16", 0 ]
				}

			}
, 			{
				"patchline" : 				{
					"destination" : [ "obj-5", 0 ],
					"order" : 1,
					"source" : [ "obj-16", 0 ]
				}

			}
, 			{
				"patchline" : 				{
					"destination" : [ "obj-75", 0 ],
					"order" : 2,
					"source" : [ "obj-16", 0 ]
				}

			}
, 			{
				"patchline" : 				{
					"destination" : [ "obj-84", 0 ],
					"order" : 4,
					"source" : [ "obj-16", 0 ]
				}

			}
, 			{
				"patchline" : 				{
					"destination" : [ "obj-9", 0 ],
					"order" : 7,
					"source" : [ "obj-16", 0 ]
				}

			}
, 			{
				"patchline" : 				{
					"destination" : [ "obj-8", 0 ],
					"source" : [ "obj-17", 0 ]
				}

			}
, 			{
				"patchline" : 				{
					"destination" : [ "obj-122", 0 ],
					"source" : [ "obj-2", 0 ]
				}

			}
, 			{
				"patchline" : 				{
					"destination" : [ "obj-7", 0 ],
					"source" : [ "obj-20", 0 ]
				}

			}
, 			{
				"patchline" : 				{
					"destination" : [ "obj-14", 0 ],
					"source" : [ "obj-23", 0 ]
				}

			}
, 			{
				"patchline" : 				{
					"destination" : [ "obj-14", 0 ],
					"source" : [ "obj-25", 0 ]
				}

			}
, 			{
				"patchline" : 				{
					"destination" : [ "obj-45", 0 ],
					"source" : [ "obj-27", 2 ]
				}

			}
, 			{
				"patchline" : 				{
					"destination" : [ "obj-46", 0 ],
					"source" : [ "obj-28", 2 ]
				}

			}
, 			{
				"patchline" : 				{
					"destination" : [ "obj-4", 14 ],
					"order" : 0,
					"source" : [ "obj-29", 0 ]
				}

			}
, 			{
				"patchline" : 				{
					"destination" : [ "obj-4", 12 ],
					"order" : 1,
					"source" : [ "obj-29", 0 ]
				}

			}
, 			{
				"patchline" : 				{
					"destination" : [ "obj-4", 10 ],
					"order" : 2,
					"source" : [ "obj-29", 0 ]
				}

			}
, 			{
				"patchline" : 				{
					"destination" : [ "obj-4", 8 ],
					"order" : 3,
					"source" : [ "obj-29", 0 ]
				}

			}
, 			{
				"patchline" : 				{
					"destination" : [ "obj-4", 6 ],
					"order" : 4,
					"source" : [ "obj-29", 0 ]
				}

			}
, 			{
				"patchline" : 				{
					"destination" : [ "obj-4", 4 ],
					"order" : 5,
					"source" : [ "obj-29", 0 ]
				}

			}
, 			{
				"patchline" : 				{
					"destination" : [ "obj-4", 2 ],
					"order" : 6,
					"source" : [ "obj-29", 0 ]
				}

			}
, 			{
				"patchline" : 				{
					"destination" : [ "obj-4", 0 ],
					"order" : 7,
					"source" : [ "obj-29", 0 ]
				}

			}
, 			{
				"patchline" : 				{
					"destination" : [ "obj-29", 0 ],
					"source" : [ "obj-3", 0 ]
				}

			}
, 			{
				"patchline" : 				{
					"destination" : [ "obj-29", 0 ],
					"source" : [ "obj-30", 0 ]
				}

			}
, 			{
				"patchline" : 				{
					"destination" : [ "obj-82", 0 ],
					"source" : [ "obj-31", 0 ]
				}

			}
, 			{
				"patchline" : 				{
					"destination" : [ "obj-25", 0 ],
					"source" : [ "obj-32", 0 ]
				}

			}
, 			{
				"patchline" : 				{
					"destination" : [ "obj-49", 0 ],
					"source" : [ "obj-33", 2 ]
				}

			}
, 			{
				"patchline" : 				{
					"destination" : [ "obj-50", 0 ],
					"source" : [ "obj-36", 2 ]
				}

			}
, 			{
				"patchline" : 				{
					"destination" : [ "obj-51", 0 ],
					"source" : [ "obj-37", 2 ]
				}

			}
, 			{
				"patchline" : 				{
					"destination" : [ "obj-70", 0 ],
					"source" : [ "obj-38", 0 ]
				}

			}
, 			{
				"patchline" : 				{
					"destination" : [ "obj-52", 0 ],
					"source" : [ "obj-39", 2 ]
				}

			}
, 			{
				"patchline" : 				{
					"destination" : [ "obj-56", 0 ],
					"source" : [ "obj-4", 0 ]
				}

			}
, 			{
				"patchline" : 				{
					"destination" : [ "obj-76", 0 ],
					"source" : [ "obj-40", 0 ]
				}

			}
, 			{
				"patchline" : 				{
					"destination" : [ "obj-56", 0 ],
					"source" : [ "obj-41", 0 ]
				}

			}
, 			{
				"patchline" : 				{
					"destination" : [ "obj-53", 0 ],
					"source" : [ "obj-42", 2 ]
				}

			}
, 			{
				"patchline" : 				{
					"destination" : [ "obj-20", 0 ],
					"source" : [ "obj-45", 0 ]
				}

			}
, 			{
				"patchline" : 				{
					"destination" : [ "obj-20", 0 ],
					"source" : [ "obj-46", 0 ]
				}

			}
, 			{
				"patchline" : 				{
					"destination" : [ "obj-72", 0 ],
					"source" : [ "obj-47", 0 ]
				}

			}
, 			{
				"patchline" : 				{
					"destination" : [ "obj-74", 0 ],
					"source" : [ "obj-48", 0 ]
				}

			}
, 			{
				"patchline" : 				{
					"destination" : [ "obj-20", 0 ],
					"source" : [ "obj-49", 0 ]
				}

			}
, 			{
				"patchline" : 				{
					"destination" : [ "obj-122", 0 ],
					"source" : [ "obj-5", 0 ]
				}

			}
, 			{
				"patchline" : 				{
					"destination" : [ "obj-20", 0 ],
					"source" : [ "obj-50", 0 ]
				}

			}
, 			{
				"patchline" : 				{
					"destination" : [ "obj-20", 0 ],
					"source" : [ "obj-51", 0 ]
				}

			}
, 			{
				"patchline" : 				{
					"destination" : [ "obj-20", 0 ],
					"source" : [ "obj-52", 0 ]
				}

			}
, 			{
				"patchline" : 				{
					"destination" : [ "obj-20", 0 ],
					"source" : [ "obj-53", 0 ]
				}

			}
, 			{
				"patchline" : 				{
					"destination" : [ "obj-8", 0 ],
					"source" : [ "obj-56", 0 ]
				}

			}
, 			{
				"patchline" : 				{
					"destination" : [ "obj-2", 0 ],
					"source" : [ "obj-6", 0 ]
				}

			}
, 			{
				"patchline" : 				{
					"destination" : [ "obj-66", 0 ],
					"source" : [ "obj-60", 2 ]
				}

			}
, 			{
				"patchline" : 				{
					"destination" : [ "obj-38", 0 ],
					"source" : [ "obj-66", 0 ]
				}

			}
, 			{
				"patchline" : 				{
					"destination" : [ "obj-38", 0 ],
					"source" : [ "obj-67", 0 ]
				}

			}
, 			{
				"patchline" : 				{
					"destination" : [ "obj-38", 0 ],
					"source" : [ "obj-68", 0 ]
				}

			}
, 			{
				"patchline" : 				{
					"destination" : [ "obj-67", 0 ],
					"source" : [ "obj-69", 2 ]
				}

			}
, 			{
				"patchline" : 				{
					"destination" : [ "obj-122", 0 ],
					"source" : [ "obj-7", 0 ]
				}

			}
, 			{
				"patchline" : 				{
					"destination" : [ "obj-122", 0 ],
					"source" : [ "obj-70", 0 ]
				}

			}
, 			{
				"patchline" : 				{
					"destination" : [ "obj-68", 0 ],
					"source" : [ "obj-71", 2 ]
				}

			}
, 			{
				"patchline" : 				{
					"destination" : [ "obj-122", 0 ],
					"source" : [ "obj-72", 0 ]
				}

			}
, 			{
				"patchline" : 				{
					"destination" : [ "obj-48", 0 ],
					"source" : [ "obj-73", 0 ]
				}

			}
, 			{
				"patchline" : 				{
					"destination" : [ "obj-122", 0 ],
					"source" : [ "obj-74", 0 ]
				}

			}
, 			{
				"patchline" : 				{
					"destination" : [ "obj-56", 0 ],
					"source" : [ "obj-75", 0 ]
				}

			}
, 			{
				"patchline" : 				{
					"destination" : [ "obj-122", 0 ],
					"source" : [ "obj-76", 0 ]
				}

			}
, 			{
				"patchline" : 				{
					"destination" : [ "obj-48", 0 ],
					"source" : [ "obj-81", 0 ]
				}

			}
, 			{
				"patchline" : 				{
					"destination" : [ "obj-73", 0 ],
					"source" : [ "obj-83", 2 ]
				}

			}
, 			{
				"patchline" : 				{
					"destination" : [ "obj-82", 0 ],
					"source" : [ "obj-84", 0 ]
				}

			}
, 			{
				"patchline" : 				{
					"destination" : [ "obj-81", 0 ],
					"source" : [ "obj-86", 2 ]
				}

			}
, 			{
				"patchline" : 				{
					"destination" : [ "obj-82", 0 ],
					"source" : [ "obj-9", 0 ]
				}

			}
, 			{
				"patchline" : 				{
					"destination" : [ "obj-97", 0 ],
					"source" : [ "obj-95", 2 ]
				}

			}
, 			{
				"patchline" : 				{
					"destination" : [ "obj-98", 0 ],
					"source" : [ "obj-96", 2 ]
				}

			}
, 			{
				"patchline" : 				{
					"destination" : [ "obj-40", 0 ],
					"source" : [ "obj-97", 0 ]
				}

			}
, 			{
				"patchline" : 				{
					"destination" : [ "obj-40", 0 ],
					"source" : [ "obj-98", 0 ]
				}

			}
 ],
		"dependency_cache" : [ 			{
				"name" : "controller.js",
				"bootpath" : "~/Desktop/Badania/Pilot/MaxListeningTest",
				"patcherrelativepath" : ".",
				"type" : "TEXT",
				"implicit" : 1
			}
 ],
		"autosave" : 0,
		"boxgroups" : [ 			{
				"boxes" : [ "obj-64", "obj-96", "obj-95", "obj-86", "obj-48", "obj-40", "obj-83", "obj-63", "obj-47", "obj-62", "obj-38", "obj-71", "obj-69", "obj-60", "obj-61", "obj-66", "obj-67", "obj-68", "obj-73", "obj-81", "obj-98", "obj-97" ]
			}
, 			{
				"boxes" : [ "obj-76", "obj-74", "obj-72", "obj-70" ]
			}
, 			{
				"boxes" : [ "obj-122", "obj-111", "obj-104", "obj-41", "obj-10" ]
			}
, 			{
				"boxes" : [ "obj-30", "obj-103", "obj-29", "obj-14", "obj-23", "obj-25", "obj-32", "obj-13" ]
			}
 ],
		"styles" : [ 			{
				"name" : "rnbodefault",
				"default" : 				{
					"accentcolor" : [ 0.343034118413925, 0.506230533123016, 0.86220508813858, 1.0 ],
					"bgcolor" : [ 0.031372549019608, 0.125490196078431, 0.211764705882353, 1.0 ],
					"bgfillcolor" : 					{
						"angle" : 270.0,
						"autogradient" : 0.0,
						"color" : [ 0.031372549019608, 0.125490196078431, 0.211764705882353, 1.0 ],
						"color1" : [ 0.031372549019608, 0.125490196078431, 0.211764705882353, 1.0 ],
						"color2" : [ 0.263682, 0.004541, 0.038797, 1.0 ],
						"proportion" : 0.39,
						"type" : "color"
					}
,
					"color" : [ 0.929412, 0.929412, 0.352941, 1.0 ],
					"elementcolor" : [ 0.357540726661682, 0.515565991401672, 0.861786782741547, 1.0 ],
					"fontname" : [ "Lato" ],
					"fontsize" : [ 12.0 ],
					"stripecolor" : [ 0.258338063955307, 0.352425158023834, 0.511919498443604, 1.0 ],
					"textcolor_inverse" : [ 0.968627, 0.968627, 0.968627, 1 ]
				}
,
				"parentstyle" : "",
				"multi" : 0
			}
, 			{
				"name" : "rnbohighcontrast",
				"default" : 				{
					"accentcolor" : [ 0.666666666666667, 0.666666666666667, 0.666666666666667, 1.0 ],
					"bgcolor" : [ 0.0, 0.0, 0.0, 1.0 ],
					"bgfillcolor" : 					{
						"angle" : 270.0,
						"autogradient" : 0.0,
						"color" : [ 0.0, 0.0, 0.0, 1.0 ],
						"color1" : [ 0.090196078431373, 0.090196078431373, 0.090196078431373, 1.0 ],
						"color2" : [ 0.156862745098039, 0.168627450980392, 0.164705882352941, 1.0 ],
						"proportion" : 0.5,
						"type" : "color"
					}
,
					"clearcolor" : [ 1.0, 1.0, 1.0, 0.0 ],
					"color" : [ 1.0, 0.874509803921569, 0.141176470588235, 1.0 ],
					"editing_bgcolor" : [ 0.258823529411765, 0.258823529411765, 0.258823529411765, 1.0 ],
					"elementcolor" : [ 0.223386004567146, 0.254748553037643, 0.998085916042328, 1.0 ],
					"fontsize" : [ 13.0 ],
					"locked_bgcolor" : [ 0.258823529411765, 0.258823529411765, 0.258823529411765, 1.0 ],
					"selectioncolor" : [ 0.301960784313725, 0.694117647058824, 0.949019607843137, 1.0 ],
					"stripecolor" : [ 0.258823529411765, 0.258823529411765, 0.258823529411765, 1.0 ],
					"textcolor" : [ 1.0, 1.0, 1.0, 1.0 ],
					"textcolor_inverse" : [ 1.0, 1.0, 1.0, 1.0 ]
				}
,
				"parentstyle" : "",
				"multi" : 0
			}
, 			{
				"name" : "rnbolight",
				"default" : 				{
					"accentcolor" : [ 0.443137254901961, 0.505882352941176, 0.556862745098039, 1.0 ],
					"bgcolor" : [ 0.796078431372549, 0.862745098039216, 0.925490196078431, 1.0 ],
					"bgfillcolor" : 					{
						"angle" : 270.0,
						"autogradient" : 0.0,
						"color" : [ 0.835294117647059, 0.901960784313726, 0.964705882352941, 1.0 ],
						"color1" : [ 0.031372549019608, 0.125490196078431, 0.211764705882353, 1.0 ],
						"color2" : [ 0.263682, 0.004541, 0.038797, 1.0 ],
						"proportion" : 0.39,
						"type" : "color"
					}
,
					"clearcolor" : [ 0.898039, 0.898039, 0.898039, 1.0 ],
					"color" : [ 0.815686274509804, 0.509803921568627, 0.262745098039216, 1.0 ],
					"editing_bgcolor" : [ 0.898039, 0.898039, 0.898039, 1.0 ],
					"elementcolor" : [ 0.337254901960784, 0.384313725490196, 0.462745098039216, 1.0 ],
					"fontname" : [ "Lato" ],
					"locked_bgcolor" : [ 0.898039, 0.898039, 0.898039, 1.0 ],
					"stripecolor" : [ 0.309803921568627, 0.698039215686274, 0.764705882352941, 1.0 ],
					"textcolor_inverse" : [ 0.0, 0.0, 0.0, 1.0 ]
				}
,
				"parentstyle" : "",
				"multi" : 0
			}
, 			{
				"name" : "rnbomonokai",
				"default" : 				{
					"accentcolor" : [ 0.501960784313725, 0.501960784313725, 0.501960784313725, 1.0 ],
					"bgcolor" : [ 0.0, 0.0, 0.0, 1.0 ],
					"bgfillcolor" : 					{
						"angle" : 270.0,
						"autogradient" : 0.0,
						"color" : [ 0.0, 0.0, 0.0, 1.0 ],
						"color1" : [ 0.031372549019608, 0.125490196078431, 0.211764705882353, 1.0 ],
						"color2" : [ 0.263682, 0.004541, 0.038797, 1.0 ],
						"proportion" : 0.39,
						"type" : "color"
					}
,
					"clearcolor" : [ 0.976470588235294, 0.96078431372549, 0.917647058823529, 1.0 ],
					"color" : [ 0.611764705882353, 0.125490196078431, 0.776470588235294, 1.0 ],
					"editing_bgcolor" : [ 0.976470588235294, 0.96078431372549, 0.917647058823529, 1.0 ],
					"elementcolor" : [ 0.749019607843137, 0.83921568627451, 1.0, 1.0 ],
					"fontname" : [ "Lato" ],
					"locked_bgcolor" : [ 0.976470588235294, 0.96078431372549, 0.917647058823529, 1.0 ],
					"stripecolor" : [ 0.796078431372549, 0.207843137254902, 1.0, 1.0 ],
					"textcolor" : [ 0.129412, 0.129412, 0.129412, 1.0 ]
				}
,
				"parentstyle" : "",
				"multi" : 0
			}
 ],
		"bgcolor" : [ 0.796, 0.863, 0.925, 1.0 ]
	}

}
